<svg width="374" height="153" viewBox="0 0 374 153" fill="none" xmlns="http://www.w3.org/2000/svg">
<path d="M45 32L49.9789 29.0769L44.958 26.2267L45 32ZM173 21.3744C173.414 21.0948 173.414 21.0944 173.414 21.0939C173.414 21.0936 173.413 21.093 173.413 21.0924C173.412 21.0913 173.411 21.0898 173.41 21.0879C173.407 21.0841 173.404 21.0789 173.399 21.0723C173.39 21.0591 173.377 21.0401 173.359 21.0156C173.325 20.9667 173.273 20.8958 173.205 20.8045C173.068 20.6218 172.863 20.3576 172.585 20.0246C172.028 19.3587 171.181 18.4178 170.006 17.3051C167.655 15.0796 163.997 12.1674 158.746 9.39361C148.24 3.84363 131.387 -1.13789 105.932 1.01082L106.017 2.00728C131.297 -0.126694 147.956 4.82446 158.279 10.2778C163.443 13.0057 167.028 15.8629 169.318 18.0312C170.463 19.1155 171.284 20.0278 171.817 20.6657C172.084 20.9846 172.278 21.235 172.404 21.404C172.468 21.4885 172.514 21.5527 172.544 21.5949C172.559 21.616 172.57 21.6316 172.577 21.6415C172.58 21.6465 172.583 21.65 172.584 21.6521C172.585 21.6532 172.585 21.6538 172.586 21.6542C172.586 21.6543 172.586 21.6543 172.586 21.6544C172.586 21.6542 172.586 21.654 173 21.3744ZM105.932 1.01082C67.3134 4.27079 51.9883 20.2034 46.8076 27.8064L47.634 28.3695C52.639 21.0243 67.6866 5.24285 106.017 2.00728L105.932 1.01082Z" fill="#E60CFE"/>
<path d="M181 133.5L175.506 135.275L179.79 139.145L181 133.5ZM45.5 122.5C45.0665 122.749 45.0668 122.75 45.0671 122.75C45.0673 122.751 45.0676 122.751 45.068 122.752C45.0686 122.753 45.0695 122.754 45.0705 122.756C45.0725 122.759 45.0752 122.764 45.0787 122.77C45.0857 122.782 45.0956 122.798 45.1086 122.819C45.1345 122.862 45.1727 122.922 45.224 123.001C45.3267 123.157 45.4821 123.384 45.6976 123.674C46.1287 124.252 46.8002 125.081 47.7716 126.096C49.7147 128.126 52.8563 130.902 57.6718 133.924C67.303 139.967 83.6212 146.986 110.426 150.995L110.574 150.005C83.8788 146.014 67.697 139.033 58.2032 133.076C53.4562 130.098 50.3791 127.374 48.494 125.404C47.5514 124.419 46.9065 123.623 46.4996 123.076C46.2962 122.803 46.1523 122.593 46.0604 122.452C46.0145 122.382 45.9815 122.33 45.9607 122.296C45.9503 122.279 45.9429 122.267 45.9384 122.259C45.9361 122.255 45.9346 122.253 45.9338 122.251C45.9334 122.251 45.9331 122.25 45.9331 122.25C45.9331 122.25 45.9331 122.25 45.9331 122.25C45.9333 122.25 45.9335 122.251 45.5 122.5ZM110.426 150.995C151.606 157.152 171.323 143.832 178.327 137.203L177.639 136.476C170.864 142.889 151.457 156.119 110.574 150.005L110.426 150.995Z" fill="#E60CFE"/>
<rect x="181" y="17" width="193" height="114" rx="20" fill="#F5F5F7"/>
<path fill-rule="evenodd" clip-rule="evenodd" d="M4.99648 49.342C4.67302 49.6654 4.60713 49.8788 3.78732 53.2557C3.31043 55.2201 2.7318 57.5602 2.50155 58.4559C0.55193 66.0369 0 68.4182 0 69.2476C0 70.7395 0.837774 72.9468 1.83129 74.0726L2.30756 74.6124L2.33698 86.4703C2.36966 99.6726 2.31586 98.6923 3.09804 100.35C3.56169 101.333 3.92961 101.857 4.71106 102.647C5.82343 103.772 6.99108 104.422 8.57772 104.799C9.41981 104.999 9.80086 105.005 18.9918 104.977L28.5318 104.947L29.2674 104.701C31.9119 103.814 33.7056 102.039 34.6453 99.379L34.9423 98.5385L34.9948 87.4067L35.0474 76.2748L35.6272 75.931C36.557 75.3795 37.4122 74.6357 37.9777 73.8868L38.5038 73.1901L38.8101 73.6241C39.679 74.855 41.4568 76.1492 43.0389 76.7026C43.8713 76.9938 43.887 76.9951 46.6598 76.9975L49.4446 77L50.363 76.6715L51.2814 76.3429L51.3088 90.3649L51.3362 104.387L51.6795 104.693C51.9529 104.938 52.1206 105 52.5044 105C52.9122 105 53.041 104.945 53.3435 104.643L53.7008 104.286V89.4506V74.6157L54.1314 74.1268C55.1708 72.9467 55.9021 71.1379 55.9858 69.5403C56.032 68.6605 55.9936 68.4231 55.4356 66.1257C55.1058 64.7677 54.6304 62.8529 54.3792 61.8705C53.3283 57.7604 53.0522 56.6569 52.2239 53.2552C51.4044 49.8899 51.3344 49.6632 51.0141 49.3415L50.6742 49H28.0064H5.33855L4.99648 49.342ZM16.3118 55.7223L16.3414 60.028L16.685 60.3715C16.9703 60.6566 17.1081 60.7148 17.4974 60.7148C17.8868 60.7148 18.0245 60.6566 18.3099 60.3715L18.6534 60.028L18.683 55.7223L18.7127 51.4165H28.0097H37.3068V55.577C37.3068 60.2292 37.3141 60.2822 38.0082 60.6114C38.4963 60.843 38.9726 60.7473 39.3639 60.339L39.6713 60.0183L39.7009 55.7163L39.7306 51.4144L44.4756 51.4417L49.2205 51.469L49.6741 53.2552C49.9236 54.2375 50.4171 56.1996 50.7709 57.6154C52.449 64.3321 52.886 66.0711 53.226 67.3865C53.6375 68.9791 53.6663 69.3826 53.4327 70.2795C53.0647 71.6922 51.7611 73.329 50.5288 73.926C49.4634 74.4422 48.8982 74.531 46.6791 74.531C43.9749 74.531 43.1701 74.3227 41.8539 73.2826C41.3064 72.8499 40.5289 71.8409 40.2169 71.1579C39.9739 70.6262 39.7272 69.5231 39.7254 68.9596C39.7222 67.9732 38.8777 67.3766 38.0024 67.7422C37.5643 67.9253 37.3068 68.3731 37.3068 68.9521C37.3068 70.8138 35.9069 73.0716 34.2454 73.8893C32.9737 74.5152 32.8445 74.5284 28.0064 74.5284C23.1701 74.5284 23.0386 74.515 21.7707 73.891C20.1859 73.111 18.894 71.1476 18.7448 69.2922C18.7139 68.9086 18.6405 68.467 18.5816 68.311C18.4396 67.9347 18.0254 67.6762 17.5444 67.6635C16.776 67.6435 16.2889 68.1574 16.2889 68.9881C16.2889 69.7247 15.9262 70.9512 15.4886 71.6946C14.7037 73.0279 13.4522 73.983 11.9755 74.376C11.1588 74.5933 7.52546 74.5908 6.68695 74.3725C5.63763 74.0992 4.9349 73.6928 4.15093 72.9057C3.27175 72.0229 2.67632 70.9349 2.49577 69.8814C2.35411 69.0543 2.40308 68.7533 3.10687 66.1257C3.36223 65.1722 4.01705 62.5719 4.56194 60.3471C5.4614 56.6747 6.67108 51.8769 6.78048 51.5478C6.81464 51.4454 7.86333 51.4165 11.5531 51.4165H16.2822L16.3118 55.7223ZM18.7051 74.6509C19.7345 75.6818 21.1992 76.5026 22.6154 76.842C23.4162 77.0339 23.8592 77.0512 28.0326 77.0518L32.5778 77.0525V82.8311V88.6098H18.6534H4.72903V82.4834V76.3569L5.64856 76.6785L6.5681 77H9.30042C11.6722 77 12.116 76.9742 12.6633 76.8039C14.4167 76.2587 16.2572 74.9858 17.137 73.7101L17.4908 73.1969L17.802 73.6276C17.9731 73.8644 18.3795 74.3249 18.7051 74.6509ZM32.5762 94.3096C32.5745 97.9905 32.5095 98.4971 31.898 99.5901C31.4568 100.379 30.5001 101.341 29.6405 101.861C28.4258 102.595 28.6009 102.584 18.6327 102.581C13.1918 102.579 9.53656 102.538 9.24788 102.475C8.79904 102.377 7.78409 101.97 7.67154 101.844C7.64264 101.811 7.44591 101.679 7.23447 101.551C6.63546 101.187 5.64257 100.059 5.31732 99.3719C4.80123 98.2821 4.73281 97.6796 4.73082 94.2045L4.72903 91.0263H18.6534H32.5778L32.5762 94.3096Z" fill="#1C1C1C"/>
<circle cx="201.5" cy="34.5" r="3.5" fill="#E60CFE"/>
<circle cx="211.5" cy="34.5" r="3.5" fill="#E60CFE"/>
<circle cx="221.5" cy="34.5" r="3.5" fill="#E60CFE"/>
<path fill-rule="evenodd" clip-rule="evenodd" d="M276.804 52.1329C276.705 52.2502 276.689 53.3422 276.709 58.6289C276.739 66.7114 276.619 73.8547 276.432 75.0366C276.113 77.056 275.706 78.0608 274.819 79.0187C274.117 79.7771 273.112 80.2826 271.784 80.5463C270.975 80.707 270.468 80.7328 267.239 80.7784C263.859 80.8261 263.599 80.8404 263.509 80.9838C263.432 81.1071 263.447 81.1624 263.581 81.2607C263.72 81.3617 264.256 81.3835 266.618 81.3837C270.829 81.3841 272.004 81.5308 273.503 82.2436C274.732 82.8279 275.635 83.8712 276.128 85.2789C276.507 86.3582 276.576 87.1297 276.619 90.7421C276.657 93.9889 276.669 94.189 276.826 94.3434C276.951 94.466 277.032 94.4863 277.15 94.4243C277.296 94.3475 277.311 94.1124 277.364 91.1496C277.425 87.7713 277.54 86.4558 277.866 85.4175C278.472 83.4885 279.726 82.316 281.734 81.8016C282.982 81.4818 284.231 81.3889 287.316 81.3861C290.392 81.3833 290.579 81.3603 290.508 80.9944C290.476 80.8356 290.343 80.8278 286.833 80.7776C282.544 80.7164 281.966 80.6426 280.575 79.9779C278.89 79.1725 278.03 77.8361 277.637 75.412C277.449 74.2499 277.35 68.8486 277.342 59.3459C277.336 53.0228 277.321 52.2454 277.199 52.1259C277.027 51.9563 276.952 51.9575 276.804 52.1329ZM271.047 56.9248C267.413 57.7048 263.809 59.4375 260.767 61.8674C256.295 65.4396 253.21 70.1458 251.836 75.494C250.441 80.9193 250.802 86.7409 252.845 91.7769C255.113 97.3663 259.244 101.955 264.642 104.883C267.386 106.372 270.978 107.492 274.3 107.895C275.465 108.036 278.584 108.035 279.765 107.892C283.088 107.49 286.726 106.357 289.408 104.889C291.027 104.002 292.992 102.641 294.269 101.522C294.556 101.271 294.835 101.09 294.89 101.12C294.944 101.151 294.961 101.146 294.928 101.11C294.895 101.074 295.295 100.587 295.817 100.028C299.009 96.6109 301.07 92.8899 302.193 88.518C302.841 85.9934 303.056 84.0186 302.988 81.186C302.937 79.0325 302.738 77.5579 302.234 75.6003C300.771 69.9176 297.335 64.8454 292.567 61.3281C290.304 59.6588 287.986 58.4445 285.576 57.6663C283.702 57.061 281.31 56.5347 281.855 56.8476C281.963 56.9099 281.997 57.09 282.008 57.6736C282.017 58.1402 282.062 58.457 282.129 58.5187C282.188 58.573 282.803 58.7982 283.495 59.0192C287.777 60.3876 290.856 62.1959 293.784 65.0627C298.172 69.36 300.57 74.6956 300.891 80.8723C300.991 82.7908 300.72 85.6762 300.267 87.5201L300.125 88.0979L299.292 88.2441C295.535 88.9032 290.252 91.0981 285.718 93.8834C284.263 94.7775 281.01 96.919 280.071 97.6013C279.643 97.912 279.267 98.1663 279.236 98.1663C279.205 98.1663 278.95 98.0663 278.669 97.9442C276.383 96.9471 272.744 95.6721 270.202 94.9773C265.659 93.7357 260.928 93.0548 256.845 93.0548H255.74L255.553 92.6958C254.658 90.9733 253.848 88.4238 253.38 85.856C253.197 84.8507 253.178 84.505 253.181 82.1076C253.183 79.7647 253.205 79.3416 253.377 78.3591C253.959 75.0464 254.941 72.3642 256.561 69.6695C257.699 67.7741 259.845 65.2869 261.591 63.8368C264.333 61.5606 267.01 60.1195 270.932 58.809C271.738 58.5396 271.768 58.5207 271.693 58.3272C271.643 58.1991 271.65 58.0407 271.711 57.8916C271.807 57.6572 271.866 56.7574 271.784 56.7695C271.76 56.7729 271.428 56.8429 271.047 56.9248ZM268.411 63.7284C268.201 64.133 267.827 64.5039 267.563 64.5689C267.276 64.6398 267.311 64.7418 267.662 64.8557C267.942 64.9461 268.037 65.035 268.481 65.619L268.639 65.8281L268.824 65.4736C268.945 65.2393 269.144 65.0406 269.409 64.8879C269.843 64.6382 269.843 64.6363 269.291 64.3364C269.146 64.258 268.959 64.0319 268.85 63.804C268.746 63.5861 268.642 63.4078 268.619 63.4078C268.596 63.4078 268.503 63.5521 268.411 63.7284ZM285.887 64.1304C285.784 64.3181 285.584 64.4936 285.344 64.6079L284.964 64.7887L285.352 65.0305C285.566 65.1636 285.802 65.3896 285.878 65.5328C286.033 65.8286 286.233 65.8724 286.312 65.6281C286.365 65.4641 286.787 65.0702 287.102 64.8897C287.252 64.8041 287.234 64.7792 286.908 64.6155C286.71 64.5164 286.463 64.3 286.359 64.1346C286.255 63.9692 286.143 63.8338 286.11 63.8338C286.077 63.8338 285.976 63.9673 285.887 64.1304ZM262.606 66.7474C262.549 66.8036 262.502 66.9301 262.502 67.0285C262.502 67.1269 262.549 67.2534 262.606 67.3096C262.664 67.3659 262.792 67.4119 262.893 67.4119C262.993 67.4119 263.122 67.3659 263.179 67.3096C263.236 67.2534 263.283 67.1269 263.283 67.0285C263.283 66.9301 263.236 66.8036 263.179 66.7474C263.122 66.6911 262.993 66.6451 262.893 66.6451C262.792 66.6451 262.664 66.6911 262.606 66.7474ZM269.54 69.213L269.275 69.566L269.547 69.9371C269.696 70.1413 269.827 70.3084 269.836 70.3084C269.847 70.3084 270 70.1348 270.177 69.9227L270.499 69.5368L270.209 69.2057C270.049 69.0235 269.893 68.8713 269.861 68.8674C269.83 68.8634 269.685 69.0189 269.54 69.213ZM293.177 70.1459C292.968 70.9414 292.527 71.416 291.809 71.6184C291.539 71.6945 291.275 71.7567 291.223 71.7567C291.171 71.7567 291.128 71.7887 291.128 71.8279C291.128 71.8671 291.372 71.9657 291.67 72.047C292.353 72.2332 292.937 72.782 293.162 73.4483C293.244 73.6882 293.341 73.9031 293.378 73.9259C293.415 73.9485 293.553 73.7199 293.684 73.4177C294.028 72.6233 294.478 72.2699 295.545 71.9575C295.731 71.9029 295.564 71.7952 295.032 71.6269C294.19 71.3608 293.862 70.9359 293.505 69.6482C293.438 69.4064 293.326 69.576 293.177 70.1459ZM281.76 70.2217C281.76 70.36 281.177 70.9048 281.03 70.9048C280.954 70.9048 280.892 70.9431 280.892 70.99C280.892 71.0368 280.934 71.0751 280.985 71.0751C281.035 71.0751 281.27 71.2694 281.505 71.5067C281.93 71.9357 281.934 71.937 282.013 71.7313C282.057 71.6174 282.236 71.4088 282.41 71.2676L282.727 71.011L282.463 70.826C282.317 70.7242 282.13 70.5279 282.047 70.3895C281.897 70.1405 281.76 70.0602 281.76 70.2217ZM260.264 70.8909C260.028 71.6102 259.631 72.0316 259 72.2325C258.755 72.3103 258.521 72.4051 258.479 72.443C258.437 72.481 258.626 72.5761 258.9 72.6544C259.592 72.8518 260.03 73.2574 260.225 73.8809C260.309 74.1481 260.412 74.3833 260.455 74.4035C260.498 74.4237 260.598 74.2446 260.677 74.0056C260.921 73.2713 261.306 72.9021 262.098 72.6423C262.57 72.4876 262.554 72.4464 261.938 72.2256C261.326 72.0056 260.912 71.5716 260.719 70.947C260.632 70.666 260.538 70.4073 260.508 70.3721C260.479 70.3369 260.369 70.5703 260.264 70.8909ZM266.25 70.9218C265.968 71.1988 266.126 71.3803 269.507 74.6557C271.356 76.4467 272.956 77.9516 273.063 78C273.216 78.0693 273.295 78.0551 273.432 77.9335C273.527 77.8485 273.606 77.7336 273.606 77.6783C273.606 77.5125 266.682 70.8196 266.51 70.8196C266.424 70.8196 266.307 70.8656 266.25 70.9218ZM283.817 74.2511C281.919 76.0888 280.368 77.6307 280.371 77.6776C280.383 77.8499 280.613 78.0609 280.789 78.0609C280.901 78.0609 281.26 77.7746 281.733 77.3071C282.153 76.8925 283.717 75.3924 285.208 73.9733C286.699 72.5543 287.919 71.3294 287.919 71.2512C287.919 71.0452 287.743 70.9044 287.489 70.9073C287.316 70.9094 286.518 71.6355 283.817 74.2511ZM272.535 71.7421C272.332 71.9624 272.356 72.1563 272.608 72.3183C272.809 72.4475 272.841 72.4475 273.042 72.3183C273.31 72.1455 273.32 71.894 273.066 71.7189C272.816 71.5471 272.71 71.5517 272.535 71.7421ZM288.321 75.3386C288.232 75.7744 287.926 76.1074 287.406 76.3342L286.921 76.5459L287.355 76.7136C287.879 76.9165 288.059 77.0672 288.277 77.4859C288.368 77.6616 288.471 77.804 288.506 77.8023C288.541 77.8006 288.647 77.6376 288.743 77.4402C288.879 77.1581 289.023 77.0264 289.415 76.8256C289.689 76.6851 289.913 76.549 289.913 76.5233C289.914 76.4976 289.775 76.4273 289.606 76.3671C289.206 76.2251 288.754 75.777 288.649 75.4186C288.54 75.0445 288.389 75.0075 288.321 75.3386ZM256.781 76.0931C256.66 76.3796 256.408 76.6233 256.042 76.8062L255.785 76.9354L256.086 77.0612C256.428 77.2043 256.729 77.5023 256.816 77.784C256.901 78.0572 256.999 78.0228 257.216 77.645C257.32 77.4629 257.557 77.2305 257.743 77.1277C258.051 76.9577 258.123 76.783 257.886 76.783C257.704 76.783 257.236 76.3659 257.126 76.1067C256.989 75.7815 256.913 75.7785 256.781 76.0931ZM296.379 76.7466C296.307 76.9164 296.21 77.0265 296.159 76.9958C296.109 76.9655 296.079 76.9893 296.092 77.0486C296.105 77.1079 295.97 77.2353 295.791 77.3318C295.612 77.4283 295.466 77.5282 295.466 77.5539C295.465 77.5797 295.605 77.6505 295.777 77.7113C295.973 77.7812 296.187 77.9601 296.357 78.197C296.505 78.4033 296.651 78.5721 296.68 78.5721C296.71 78.5721 296.799 78.4394 296.878 78.2771C296.967 78.094 297.151 77.9169 297.365 77.8098C297.79 77.597 297.862 77.493 297.635 77.4222C297.357 77.3355 296.972 76.9797 296.854 76.6995C296.71 76.3575 296.537 76.3745 296.379 76.7466ZM265.414 77.6288C265.096 77.9733 265.536 78.4493 265.935 78.1928C266.192 78.027 266.216 77.6779 265.978 77.5528C265.733 77.4239 265.584 77.4439 265.414 77.6288ZM277.458 79.3272C277.638 79.6662 278.217 80.2988 278.579 80.5515C278.72 80.6501 279.048 80.8158 279.308 80.9197L279.782 81.1086L279.352 81.2487C278.386 81.5638 277.606 82.2962 277.255 83.218C277.156 83.4776 277.075 83.7269 277.075 83.7721C277.075 83.8171 277.036 83.854 276.989 83.854C276.941 83.854 276.902 83.7733 276.902 83.6745C276.902 83.2997 276.39 82.4394 275.886 81.9682C275.439 81.5496 275.105 81.3689 274.388 81.1561C274.316 81.1347 274.473 81.0325 274.744 80.9243C275.791 80.5065 276.483 79.7619 276.81 78.6999C276.868 78.5124 276.935 78.3016 276.96 78.2313C276.985 78.159 277.07 78.3069 277.155 78.5721C277.238 78.8298 277.375 79.1696 277.458 79.3272ZM259.398 81.7561C259.131 83.4448 258.339 84.3199 256.799 84.6307C256.501 84.6909 256.257 84.7619 256.257 84.7887C256.257 84.8156 256.52 84.8857 256.842 84.9447C258.379 85.2263 259.077 85.9638 259.391 87.6402C259.449 87.9474 259.522 88.1988 259.553 88.1988C259.584 88.1988 259.655 87.9566 259.711 87.6605C259.859 86.8723 260.103 86.2009 260.366 85.8627C260.655 85.49 261.549 85.0604 262.296 84.9348C262.6 84.8836 262.849 84.8163 262.849 84.7854C262.849 84.7544 262.679 84.7062 262.471 84.6782C261.945 84.6075 261.196 84.3197 260.796 84.0348C260.596 83.8924 260.349 83.5909 260.189 83.2921C259.927 82.8036 259.64 81.7864 259.64 81.3453C259.64 80.901 259.494 81.1485 259.398 81.7561ZM291.133 83.8236C290.906 84.3432 290.589 84.6623 290.153 84.8104C289.978 84.8701 289.837 84.9573 289.841 85.0041C289.845 85.051 290.041 85.1599 290.276 85.2463C290.696 85.3998 291.215 85.9301 291.215 86.2046C291.215 86.47 291.388 86.3791 291.564 86.0211C291.763 85.6189 292.193 85.2735 292.625 85.1702C293.005 85.0794 292.984 84.9843 292.541 84.7918C291.991 84.553 291.751 84.3227 291.518 83.8123L291.324 83.3872L291.133 83.8236ZM270.192 87.1552C266.808 90.4425 266.146 91.1189 266.146 91.2861C266.146 91.4667 266.364 91.6249 266.567 91.5918C266.661 91.5765 268.264 90.0923 270.128 88.2937C272.966 85.5566 273.519 84.9853 273.519 84.7887C273.519 84.5583 273.389 84.4504 273.111 84.4504C273.037 84.4504 271.724 85.6676 270.192 87.1552ZM280.513 84.5805C280.483 84.6572 280.458 84.7692 280.458 84.8295C280.458 85.0137 287.209 91.561 287.428 91.5892C287.541 91.6039 287.691 91.5415 287.783 91.4424C287.927 91.2853 287.93 91.2526 287.809 91.0713C287.736 90.962 286.186 89.4371 284.365 87.6827C281.81 85.2214 280.998 84.4871 280.811 84.4671C280.648 84.4498 280.549 84.4873 280.513 84.5805ZM295.637 84.7092C295.513 84.9376 295.608 85.2109 295.842 85.2978C296.239 85.4451 296.565 85.0045 296.284 84.6998C296.085 84.4846 295.757 84.4893 295.637 84.7092ZM266.877 84.7485C266.743 85.0941 266.469 85.3957 266.138 85.5615C265.951 85.6552 265.8 85.7597 265.802 85.7938C265.803 85.8281 265.969 85.9327 266.17 86.0264C266.371 86.1201 266.626 86.331 266.736 86.495C266.846 86.659 266.964 86.8026 266.997 86.8142C267.03 86.8258 267.134 86.6922 267.23 86.5174C267.335 86.3248 267.552 86.1191 267.78 85.9958L268.157 85.792L267.826 85.6097C267.531 85.4469 267.389 85.289 267.043 84.7375C266.947 84.5833 266.941 84.5836 266.877 84.7485ZM285.192 85.0953C285.007 85.2775 285.021 85.5004 285.23 85.686C285.374 85.8143 285.441 85.8238 285.623 85.7425C285.915 85.6114 285.972 85.4306 285.801 85.1738C285.639 84.9316 285.392 84.8997 285.192 85.0953ZM288.999 87.8949C288.757 88.2577 289.158 88.6689 289.553 88.4618C289.777 88.3438 289.835 88.0773 289.682 87.8636C289.51 87.6226 289.17 87.6382 288.999 87.8949ZM262.855 90.2151C262.516 90.4482 262.685 90.8398 263.124 90.8398C263.417 90.8398 263.593 90.5793 263.462 90.3393C263.344 90.1218 263.071 90.0662 262.855 90.2151ZM281.335 90.7207C281.257 90.9312 281.103 91.0983 280.843 91.2531C280.634 91.3772 280.463 91.4979 280.462 91.5213C280.461 91.5448 280.617 91.6523 280.81 91.7602C281.013 91.8741 281.22 92.0798 281.302 92.2501C281.45 92.5543 281.586 92.6356 281.586 92.4194C281.586 92.283 282.138 91.7029 282.406 91.5575C282.56 91.4735 282.544 91.4492 282.21 91.2646C281.973 91.1337 281.792 90.9504 281.694 90.7407C281.611 90.5633 281.521 90.4172 281.495 90.416C281.469 90.4149 281.397 90.5519 281.335 90.7207ZM299.15 90.9804C298.733 92.0697 297.649 94.242 297.383 94.5237C297.35 94.5584 296.7 94.738 295.939 94.9227C292.266 95.8136 288.933 97.1019 285.367 99.0093C284.569 99.436 283.878 99.785 283.832 99.785C283.755 99.785 281.837 99.0307 281.778 98.9772C281.764 98.9646 282.135 98.6873 282.602 98.3609C287.512 94.9308 292.229 92.4601 296.42 91.1234C297.035 90.9269 299.028 90.4334 299.26 90.42C299.334 90.4158 299.299 90.5917 299.15 90.9804ZM270.912 91.3378C270.763 91.4559 270.73 91.5451 270.774 91.7143C270.873 92.1038 271.391 92.115 271.489 91.7298C271.588 91.3433 271.219 91.0931 270.912 91.3378ZM260.251 95.2747C260.893 95.3243 262.283 95.4959 263.339 95.656C266.245 96.0961 267.879 96.4632 270.83 97.339C272.499 97.8343 272.587 97.8705 272.261 97.928C272.07 97.9617 271.426 98.0689 270.83 98.1661C267.896 98.6442 265.433 99.3768 262.991 100.497L262.178 100.87L261.148 99.9598C259.721 98.6999 258.273 97.0835 257.21 95.5665L256.942 95.1846H258.013C258.603 95.1846 259.61 95.2252 260.251 95.2747ZM295.193 97.5913C294.244 98.7882 291.595 101.115 289.914 102.228L289.523 102.486L287.94 101.7C286.757 101.114 286.384 100.892 286.466 100.825C286.871 100.495 289.992 99.056 291.779 98.3759C292.545 98.0843 295.029 97.3121 295.451 97.2346C295.467 97.2316 295.351 97.3922 295.193 97.5913ZM276.509 100.009C276.904 100.158 271.508 103.18 269.085 104.167L268.511 104.401L267.253 103.808C266.561 103.482 265.614 102.996 265.15 102.727L264.305 102.239L265.16 101.878C267.382 100.939 269.404 100.439 272.695 100.014C273.139 99.9572 276.359 99.9524 276.509 100.009ZM281.586 101.192C283.372 101.882 284.67 102.448 286.221 103.211L287.26 103.723L286.527 104.014C283.856 105.072 280.967 105.743 278.348 105.912C276.344 106.042 273.63 105.825 271.937 105.398L271.612 105.316L272.544 104.839C274.594 103.79 275.922 102.993 278.29 101.388C279.255 100.734 279.683 100.49 279.808 100.524C279.903 100.55 280.704 100.851 281.586 101.192Z" fill="#1C1C1C"/>
</svg>
