<svg width="52" height="56" viewBox="0 0 52 56" fill="none" xmlns="http://www.w3.org/2000/svg">
<path fill-rule="evenodd" clip-rule="evenodd" d="M25.8041 0.132941C25.7051 0.250166 25.6891 1.34216 25.7089 6.62887C25.7392 14.7114 25.6187 21.8547 25.432 23.0366C25.1132 25.056 24.7061 26.0608 23.8189 27.0187C23.1166 27.7771 22.1123 28.2826 20.784 28.5463C19.9747 28.707 19.4681 28.7328 16.2392 28.7784C12.8588 28.8261 12.5986 28.8404 12.5091 28.9838C12.4323 29.1071 12.4468 29.1624 12.5815 29.2607C12.7201 29.3617 13.2564 29.3835 15.6176 29.3837C19.8293 29.3841 21.0036 29.5308 22.5031 30.2436C23.7321 30.8279 24.6345 31.8712 25.1281 33.2789C25.5066 34.3582 25.5759 35.1297 25.6188 38.7421C25.6573 41.9889 25.6688 42.189 25.8261 42.3434C25.9509 42.466 26.0321 42.4863 26.15 42.4243C26.296 42.3475 26.3115 42.1124 26.3645 39.1496C26.425 35.7713 26.5401 34.4558 26.8661 33.4175C27.4718 31.4885 28.726 30.316 30.734 29.8016C31.9821 29.4818 33.2307 29.3889 36.3164 29.3861C39.3916 29.3833 39.5791 29.3603 39.5075 28.9944C39.4765 28.8356 39.3429 28.8278 35.8331 28.7776C31.5437 28.7164 30.9664 28.6426 29.5753 27.9779C27.8895 27.1725 27.0296 25.8361 26.6374 23.412C26.4494 22.2499 26.35 16.8486 26.3417 7.34593C26.3363 1.02278 26.321 0.245394 26.1994 0.125869C26.0266 -0.043749 25.9523 -0.0424704 25.8041 0.132941ZM20.0467 4.92476C16.413 5.70478 12.8094 7.43751 9.76739 9.86737C5.29518 13.4396 2.21036 18.1458 0.835539 23.494C-0.559145 28.9193 -0.198026 34.7409 1.84542 39.7769C4.11345 45.3663 8.24363 49.9551 13.6419 52.883C16.3863 54.3716 19.9782 55.4918 23.2996 55.895C24.4647 56.0364 27.5837 56.0346 28.7645 55.8919C32.088 55.4901 35.7263 54.357 38.4078 52.8887C40.0265 52.0025 41.9921 50.6413 43.2689 49.5224C43.5561 49.2707 43.8355 49.0897 43.8897 49.1201C43.9439 49.1506 43.9612 49.1459 43.928 49.1097C43.895 49.0736 44.2949 48.5869 44.8167 48.0282C48.0089 44.6109 50.0702 40.8899 51.1931 36.518C51.8415 33.9934 52.0557 32.0186 51.9881 29.186C51.9367 27.0325 51.7376 25.5579 51.2336 23.6003C49.7707 17.9176 46.3354 12.8454 41.5671 9.3281C39.304 7.65876 36.986 6.44451 34.5764 5.66628C32.7023 5.06098 30.31 4.53475 30.8549 4.84758C30.9633 4.90985 30.9966 5.09003 31.0077 5.6736C31.0166 6.1402 31.0622 6.45703 31.1294 6.51871C31.1884 6.57298 31.8028 6.79823 32.4945 7.01922C36.7774 8.38758 39.8561 10.1959 42.7835 13.0627C47.1715 17.36 49.5704 22.6956 49.8915 28.8723C49.9912 30.7908 49.7202 33.6762 49.267 35.5201L49.125 36.0979L48.2915 36.2441C44.5345 36.9032 39.2516 39.0981 34.7182 41.8834C33.263 42.7775 30.0102 44.919 29.071 45.6013C28.6432 45.912 28.2675 46.1663 28.2361 46.1663C28.2046 46.1663 27.9495 46.0663 27.6693 45.9442C25.3829 44.9471 21.7439 43.6721 19.2021 42.9773C14.659 41.7357 9.92822 41.0548 5.8454 41.0548H4.73975L4.55325 40.6958C3.65847 38.9733 2.84845 36.4238 2.38012 33.856C2.19683 32.8507 2.17843 32.505 2.18052 30.1076C2.1826 27.7647 2.20481 27.3416 2.37734 26.3591C2.95888 23.0464 3.94144 20.3642 5.56053 17.6695C6.6994 15.7741 8.84469 13.2869 10.5915 11.8368C13.3333 9.56059 16.0104 8.11948 19.9315 6.80896C20.7378 6.53958 20.7676 6.52067 20.6927 6.3272C20.6431 6.19907 20.6498 6.0407 20.711 5.89161C20.8073 5.65725 20.8658 4.75736 20.784 4.76945C20.7601 4.77295 20.4283 4.84289 20.0467 4.92476ZM17.4114 11.7284C17.2013 12.133 16.8269 12.5039 16.5632 12.5689C16.2758 12.6398 16.311 12.7418 16.6622 12.8557C16.9415 12.9461 17.0368 13.035 17.4806 13.619L17.6395 13.8281L17.8236 13.4736C17.9453 13.2393 18.1441 13.0406 18.4094 12.8879C18.8433 12.6382 18.8429 12.6363 18.2906 12.3364C18.1462 12.258 17.959 12.0319 17.8499 11.804C17.7456 11.5861 17.6417 11.4078 17.6191 11.4078C17.5965 11.4078 17.503 11.5521 17.4114 11.7284ZM34.8869 12.1304C34.784 12.3181 34.5845 12.4936 34.344 12.6079L33.9637 12.7887L34.3521 13.0305C34.5656 13.1636 34.802 13.3896 34.8775 13.5328C35.0332 13.8286 35.2331 13.8724 35.312 13.6281C35.365 13.4641 35.7866 13.0702 36.1023 12.8897C36.252 12.8041 36.2343 12.7792 35.9075 12.6155C35.7098 12.5164 35.4629 12.3 35.3588 12.1346C35.2547 11.9692 35.1425 11.8338 35.1095 11.8338C35.0766 11.8338 34.9764 11.9673 34.8869 12.1304ZM11.6064 14.7474C11.5491 14.8036 11.5023 14.9301 11.5023 15.0285C11.5023 15.1269 11.5491 15.2534 11.6064 15.3096C11.6636 15.3659 11.7925 15.4119 11.8926 15.4119C11.9928 15.4119 12.1216 15.3659 12.1789 15.3096C12.2361 15.2534 12.283 15.1269 12.283 15.0285C12.283 14.9301 12.2361 14.8036 12.1789 14.7474C12.1216 14.6911 11.9928 14.6451 11.8926 14.6451C11.7925 14.6451 11.6636 14.6911 11.6064 14.7474ZM18.5396 17.213L18.2753 17.566L18.5468 17.9371C18.6961 18.1413 18.8265 18.3084 18.8365 18.3084C18.8465 18.3084 18.9996 18.1348 19.1766 17.9227L19.4985 17.5368L19.2087 17.2057C19.0494 17.0235 18.893 16.8713 18.8615 16.8674C18.8298 16.8634 18.6849 17.0189 18.5396 17.213ZM42.1767 18.1459C41.968 18.9414 41.5271 19.416 40.8087 19.6184C40.5389 19.6945 40.2755 19.7567 40.2232 19.7567C40.1709 19.7567 40.1281 19.7887 40.1281 19.8279C40.1281 19.8671 40.3721 19.9657 40.6702 20.047C41.3527 20.2332 41.9371 20.782 42.1624 21.4483C42.2436 21.6882 42.3406 21.9031 42.3781 21.9259C42.4155 21.9485 42.5531 21.7199 42.6839 21.4177C43.0277 20.6233 43.4782 20.2699 44.5449 19.9575C44.7315 19.9029 44.5643 19.7952 44.0316 19.6269C43.1902 19.3608 42.8624 18.9359 42.5052 17.6482C42.4381 17.4064 42.3261 17.576 42.1767 18.1459ZM30.7596 18.2217C30.7596 18.36 30.1773 18.9048 30.0295 18.9048C29.954 18.9048 29.8922 18.9431 29.8922 18.99C29.8922 19.0368 29.9337 19.0751 29.9846 19.0751C30.0354 19.0751 30.2695 19.2694 30.505 19.5067C30.9304 19.9357 30.9336 19.937 31.0132 19.7313C31.0573 19.6174 31.236 19.4088 31.4104 19.2676L31.7274 19.011L31.4628 18.826C31.3173 18.7242 31.1302 18.5279 31.047 18.3895C30.8972 18.1405 30.7596 18.0602 30.7596 18.2217ZM9.26358 18.8909C9.02763 19.6102 8.63069 20.0316 7.99962 20.2325C7.75526 20.3103 7.52096 20.4051 7.4788 20.443C7.43665 20.481 7.62644 20.5761 7.90047 20.6544C8.59226 20.8518 9.03032 21.2574 9.22515 21.8809C9.30869 22.1481 9.41209 22.3833 9.45494 22.4035C9.4977 22.4237 9.59772 22.2446 9.67709 22.0056C9.92076 21.2713 10.3056 20.9021 11.0981 20.6423C11.5696 20.4876 11.5538 20.4464 10.9384 20.2256C10.3255 20.0056 9.91156 19.5716 9.71899 18.947C9.63242 18.666 9.53752 18.4073 9.50811 18.3721C9.4787 18.3369 9.36871 18.5703 9.26358 18.8909ZM15.2497 18.9218C14.9676 19.1988 15.1258 19.3803 18.5069 22.6557C20.3557 24.4467 21.956 25.9516 22.0631 26C22.2165 26.0693 22.2949 26.0551 22.4318 25.9335C22.5274 25.8485 22.6056 25.7336 22.6056 25.6783C22.6056 25.5125 15.6816 18.8196 15.5101 18.8196C15.4241 18.8196 15.3069 18.8656 15.2497 18.9218ZM32.8168 22.2511C30.9186 24.0888 29.3683 25.6307 29.3715 25.6776C29.3832 25.8499 29.6128 26.0609 29.7886 26.0609C29.9008 26.0609 30.2596 25.7746 30.7333 25.3071C31.1533 24.8925 32.7169 23.3924 34.2077 21.9733C35.6987 20.5543 36.9185 19.3294 36.9185 19.2512C36.9185 19.0452 36.7428 18.9044 36.4891 18.9073C36.316 18.9094 35.5185 19.6355 32.8168 22.2511ZM21.5348 19.7421C21.3318 19.9624 21.3564 20.1563 21.6081 20.3183C21.809 20.4475 21.8409 20.4475 22.0418 20.3183C22.3103 20.1455 22.3204 19.894 22.0658 19.7189C21.8161 19.5471 21.7102 19.5517 21.5348 19.7421ZM37.3211 23.3386C37.2324 23.7744 36.9263 24.1074 36.4061 24.3342L35.921 24.5459L36.3547 24.7136C36.8791 24.9165 37.0589 25.0672 37.2765 25.4859C37.3678 25.6616 37.471 25.804 37.5058 25.8023C37.5407 25.8006 37.6472 25.6376 37.7426 25.4402C37.879 25.1581 38.0229 25.0264 38.4146 24.8256C38.6888 24.6851 38.9133 24.549 38.9134 24.5233C38.9136 24.4976 38.7751 24.4273 38.6058 24.3671C38.2058 24.2251 37.754 23.777 37.6493 23.4186C37.5401 23.0445 37.3885 23.0075 37.3211 23.3386ZM5.78069 24.0931C5.65985 24.3796 5.40751 24.6233 5.04223 24.8062L4.78451 24.9354L5.0856 25.0612C5.42807 25.2043 5.72942 25.5023 5.81634 25.784C5.90074 26.0572 5.99928 26.0228 6.21554 25.645C6.31972 25.4629 6.55671 25.2305 6.74277 25.1277C7.0508 24.9577 7.1235 24.783 6.88616 24.783C6.70435 24.783 6.23558 24.3659 6.12628 24.1067C5.98913 23.7815 5.91332 23.7785 5.78069 24.0931ZM45.3791 24.7466C45.3068 24.9164 45.2096 25.0265 45.1589 24.9958C45.1091 24.9655 45.079 24.9893 45.092 25.0486C45.1051 25.1079 44.9697 25.2353 44.7909 25.3318C44.6121 25.4283 44.4657 25.5282 44.4656 25.5539C44.4654 25.5797 44.6054 25.6505 44.7766 25.7113C44.9733 25.7812 45.1871 25.9601 45.3572 26.197C45.5052 26.4033 45.6507 26.5721 45.6804 26.5721C45.7101 26.5721 45.7989 26.4394 45.8776 26.2771C45.9665 26.094 46.1512 25.9169 46.3649 25.8098C46.7896 25.597 46.8619 25.493 46.6347 25.4222C46.3565 25.3355 45.9721 24.9797 45.8539 24.6995C45.7097 24.3575 45.5374 24.3745 45.3791 24.7466ZM14.4139 25.6288C14.0964 25.9733 14.5358 26.4493 14.9345 26.1928C15.1922 26.027 15.2158 25.6779 14.9778 25.5528C14.7326 25.4239 14.5842 25.4439 14.4139 25.6288ZM26.4582 27.3272C26.6384 27.6662 27.2174 28.2988 27.5787 28.5515C27.7197 28.6501 28.048 28.8158 28.3083 28.9197L28.7816 29.1086L28.3519 29.2487C27.3862 29.5638 26.6064 30.2962 26.2552 31.218C26.1564 31.4776 26.0754 31.7269 26.0754 31.7721C26.0754 31.8171 26.0364 31.854 25.9887 31.854C25.941 31.854 25.9019 31.7733 25.9019 31.6745C25.9019 31.2997 25.3897 30.4394 24.8862 29.9682C24.4387 29.5496 24.1054 29.3689 23.3878 29.1561C23.3159 29.1347 23.4732 29.0325 23.7441 28.9243C24.7911 28.5065 25.4826 27.7619 25.8101 26.6999C25.8678 26.5124 25.9352 26.3016 25.9596 26.2313C25.9849 26.159 26.0696 26.3069 26.1551 26.5721C26.238 26.8298 26.3745 27.1696 26.4582 27.3272ZM8.39787 29.7561C8.13052 31.4448 7.33932 32.3199 5.79882 32.6307C5.50068 32.6909 5.25666 32.7619 5.25666 32.7887C5.25666 32.8156 5.52019 32.8857 5.84219 32.9447C7.37939 33.2263 8.07691 33.9638 8.39145 35.6402C8.44905 35.9474 8.52174 36.1988 8.55297 36.1988C8.58419 36.1988 8.65515 35.9566 8.71075 35.6605C8.85857 34.8723 9.10327 34.2009 9.36602 33.8627C9.6554 33.49 10.549 33.0604 11.2964 32.9348C11.6005 32.8836 11.8493 32.8163 11.8493 32.7854C11.8493 32.7544 11.6791 32.7062 11.4711 32.6782C10.9455 32.6075 10.1962 32.3197 9.79576 32.0348C9.59555 31.8924 9.34928 31.5909 9.1888 31.2921C8.92666 30.8036 8.63971 29.7864 8.63971 29.3453C8.63971 28.901 8.49407 29.1485 8.39787 29.7561ZM40.1331 31.8236C39.9056 32.3432 39.5885 32.6623 39.1532 32.8104C38.9776 32.8701 38.8371 32.9573 38.841 33.0041C38.8448 33.051 39.0407 33.1599 39.2764 33.2463C39.6956 33.3998 40.2148 33.9301 40.2148 34.2046C40.2148 34.47 40.388 34.3791 40.5644 34.0211C40.7626 33.6189 41.1934 33.2735 41.6252 33.1702C42.0051 33.0794 41.9839 32.9843 41.5408 32.7918C40.9911 32.553 40.7506 32.3227 40.518 31.8123L40.3243 31.3872L40.1331 31.8236ZM19.1922 35.1552C15.8081 38.4425 15.1456 39.1189 15.1456 39.2861C15.1456 39.4667 15.3637 39.6249 15.5672 39.5918C15.6611 39.5765 17.2637 38.0923 19.1285 36.2937C21.9662 33.5566 22.5189 32.9853 22.5189 32.7887C22.5189 32.5583 22.3886 32.4504 22.1106 32.4504C22.0369 32.4504 20.7237 33.6676 19.1922 35.1552ZM29.5129 32.5805C29.4829 32.6572 29.4585 32.7692 29.4585 32.8295C29.4585 33.0137 36.2087 39.561 36.4277 39.5892C36.5407 39.6039 36.6913 39.5415 36.7827 39.4424C36.9274 39.2853 36.9297 39.2526 36.8088 39.0713C36.7358 38.962 35.1861 37.4371 33.365 35.6827C30.8102 33.2214 29.9985 32.4871 29.8107 32.4671C29.648 32.4498 29.5493 32.4873 29.5129 32.5805ZM44.6371 32.7092C44.5126 32.9376 44.6076 33.2109 44.8416 33.2978C45.2387 33.4451 45.5646 33.0045 45.2838 32.6998C45.0854 32.4846 44.7569 32.4893 44.6371 32.7092ZM15.8774 32.7485C15.7434 33.0941 15.469 33.3957 15.1383 33.5615C14.9514 33.6552 14.8 33.7597 14.8017 33.7938C14.8035 33.8281 14.9693 33.9327 15.1703 34.0264C15.3713 34.1201 15.6259 34.331 15.7362 34.495C15.8465 34.659 15.9637 34.8026 15.9965 34.8142C16.0295 34.8258 16.1345 34.6922 16.2299 34.5174C16.3349 34.3248 16.552 34.1191 16.7801 33.9958L17.1568 33.792L16.826 33.6097C16.5305 33.4469 16.3888 33.289 16.0433 32.7375C15.9467 32.5833 15.9414 32.5836 15.8774 32.7485ZM34.1922 33.0953C34.0068 33.2775 34.021 33.5004 34.2298 33.686C34.3741 33.8143 34.4407 33.8238 34.6226 33.7425C34.9154 33.6114 34.9721 33.4306 34.8008 33.1738C34.6392 32.9316 34.3916 32.8997 34.1922 33.0953ZM37.9987 35.8949C37.7567 36.2577 38.1585 36.6689 38.5525 36.4618C38.7769 36.3438 38.8348 36.0773 38.6823 35.8636C38.5104 35.6226 38.17 35.6382 37.9987 35.8949ZM11.8549 38.2151C11.5161 38.4482 11.6847 38.8398 12.1238 38.8398C12.4168 38.8398 12.593 38.5793 12.4623 38.3393C12.3438 38.1218 12.0714 38.0662 11.8549 38.2151ZM30.3345 38.7207C30.257 38.9312 30.1027 39.0983 29.8428 39.2531C29.6344 39.3772 29.463 39.4979 29.4619 39.5213C29.4607 39.5448 29.6173 39.6523 29.8098 39.7602C30.0128 39.8741 30.2196 40.0798 30.3022 40.2501C30.45 40.5543 30.5862 40.6356 30.5862 40.4194C30.5862 40.283 31.1377 39.7029 31.4056 39.5575C31.5605 39.4735 31.5443 39.4492 31.2098 39.2646C30.9727 39.1337 30.7922 38.9504 30.6939 38.7407C30.6108 38.5633 30.5214 38.4172 30.4952 38.416C30.469 38.4149 30.3967 38.5519 30.3345 38.7207ZM48.1502 38.9804C47.7327 40.0697 46.6492 42.242 46.3828 42.5237C46.3499 42.5584 45.7001 42.738 44.9388 42.9227C41.2661 43.8136 37.9334 45.1019 34.3668 47.0093C33.5691 47.436 32.8785 47.785 32.8321 47.785C32.7552 47.785 30.8368 47.0307 30.7777 46.9772C30.7637 46.9646 31.1346 46.6873 31.6018 46.3609C36.5121 42.9308 41.2293 40.4601 45.4195 39.1234C46.0352 38.9269 48.0281 38.4334 48.2596 38.42C48.3335 38.4158 48.2992 38.5917 48.1502 38.9804ZM19.9115 39.3378C19.763 39.4559 19.7303 39.5451 19.7736 39.7143C19.8731 40.1038 20.3909 40.115 20.4893 39.7298C20.588 39.3433 20.2193 39.0931 19.9115 39.3378ZM9.25126 43.2747C9.893 43.3243 11.2826 43.4959 12.3392 43.656C15.2449 44.0961 16.8786 44.4632 19.8298 45.339C21.4988 45.8343 21.5867 45.8705 21.2611 45.928C21.0702 45.9617 20.4262 46.0689 19.8298 46.1661C16.8961 46.6442 14.4326 47.3768 11.9913 48.4972L11.1782 48.8704L10.1475 47.9598C8.72134 46.6999 7.27261 45.0835 6.20981 43.5665L5.94229 43.1846H7.01342C7.60259 43.1846 8.60961 43.2252 9.25126 43.2747ZM44.1929 45.5913C43.2439 46.7882 40.5949 49.1147 38.9137 50.2276L38.5233 50.4861L36.9396 49.7002C35.7574 49.1137 35.3838 48.8916 35.4661 48.8245C35.8706 48.4948 38.9923 47.056 40.7787 46.3759C41.5446 46.0843 44.029 45.3121 44.4509 45.2346C44.4669 45.2316 44.3507 45.3922 44.1929 45.5913ZM25.509 48.0088C25.9036 48.1576 20.5075 51.18 18.0848 52.1674L17.5109 52.4012L16.2526 51.8084C15.5606 51.4823 14.6143 50.9958 14.1497 50.7273L13.3051 50.2391L14.1602 49.8777C16.3822 48.9387 18.4039 48.4387 21.6948 48.0144C22.1392 47.9572 25.3593 47.9524 25.509 48.0088ZM30.5862 49.1917C32.3725 49.8822 33.6703 50.4477 35.221 51.2111L36.2605 51.7229L35.5269 52.0135C32.8564 53.0718 29.9673 53.7426 27.3483 53.9125C25.3442 54.0424 22.6297 53.8246 20.9366 53.3982L20.6121 53.3164L21.5438 52.8395C23.5939 51.7902 24.9217 50.9927 27.2899 49.3882C28.2553 48.734 28.6833 48.4905 28.8079 48.5242C28.9033 48.5501 29.7035 48.8505 30.5862 49.1917Z" fill="url(#paint0_linear_26_2428)"/>
<defs>
<linearGradient id="paint0_linear_26_2428" x1="-36.6708" y1="28" x2="97.0697" y2="28" gradientUnits="userSpaceOnUse">
<stop stop-color="#7030F3"/>
<stop offset="0.273714" stop-color="#FE981E"/>
<stop offset="0.435406" stop-color="#E60CFE"/>
<stop offset="0.609534" stop-color="#4483FE"/>
<stop offset="0.829007" stop-color="#E60CFE"/>
</linearGradient>
</defs>
</svg>
