<svg width="537" height="580" viewBox="0 0 537 580" fill="none" xmlns="http://www.w3.org/2000/svg">
<path fill-rule="evenodd" clip-rule="evenodd" d="M266.477 1.37689C265.455 2.591 265.289 13.901 265.494 68.6561C265.807 152.368 264.562 226.352 262.635 238.593C259.342 259.508 255.138 269.916 245.976 279.837C238.723 287.692 228.352 292.927 214.635 295.658C206.277 297.323 201.045 297.59 167.701 298.062C132.792 298.556 130.104 298.704 129.181 300.189C128.387 301.466 128.537 302.039 129.928 303.057C131.359 304.103 136.897 304.329 161.281 304.331C204.775 304.335 216.903 305.855 232.388 313.237C245.08 319.289 254.399 330.095 259.496 344.674C263.405 355.852 264.121 363.844 264.563 401.257C264.961 434.885 265.08 436.957 266.704 438.557C267.993 439.826 268.831 440.037 270.049 439.394C271.557 438.599 271.716 436.164 272.264 405.478C272.889 370.489 274.078 356.864 277.444 346.11C283.699 326.131 296.651 313.987 317.387 308.659C330.277 305.348 343.17 304.385 375.037 304.356C406.794 304.327 408.73 304.088 407.991 300.3C407.67 298.655 406.291 298.574 370.046 298.054C325.75 297.42 319.787 296.655 305.422 289.771C288.013 281.43 279.133 267.588 275.082 242.482C273.141 230.446 272.114 174.504 272.029 76.0829C271.973 10.593 271.815 2.54158 270.559 1.30365C268.775 -0.453115 268.008 -0.439873 266.477 1.37689ZM207.02 51.0064C169.496 59.0852 132.281 77.0314 100.867 102.198C54.6829 139.196 22.8262 187.938 8.62854 243.331C-5.77424 299.521 -2.045 359.817 19.0575 411.975C42.4793 469.865 85.1314 517.392 140.878 547.717C169.22 563.134 206.313 574.736 240.613 578.912C252.646 580.377 284.854 580.358 297.049 578.881C331.37 574.719 368.943 562.983 396.635 547.776C413.351 538.597 433.65 524.499 446.835 512.911C449.8 510.303 452.686 508.429 453.245 508.744C453.805 509.059 453.984 509.011 453.641 508.637C453.3 508.263 457.43 503.222 462.819 497.435C495.784 462.041 517.071 423.502 528.667 378.222C535.363 352.074 537.575 331.621 536.877 302.284C536.347 279.98 534.29 264.707 529.085 244.432C513.978 185.575 478.502 133.042 429.26 96.6125C405.889 79.3229 381.952 66.7467 357.068 58.6864C337.714 52.4173 313.009 46.967 318.636 50.207C319.756 50.852 320.1 52.7182 320.214 58.7623C320.306 63.5949 320.777 66.8764 321.47 67.5152C322.08 68.0773 328.425 70.4102 335.569 72.699C379.797 86.8713 411.591 105.6 441.822 135.292C487.136 179.8 511.91 235.061 515.225 299.034C516.256 318.905 513.456 348.789 508.776 367.887L507.31 373.871L498.703 375.385C459.905 382.212 405.348 404.945 358.533 433.792C343.505 443.052 309.913 465.232 300.214 472.299C295.796 475.518 291.916 478.151 291.592 478.151C291.266 478.151 288.633 477.116 285.738 475.85C262.127 465.523 224.548 452.318 198.299 445.122C151.383 432.263 102.528 425.21 60.365 425.21H48.947L47.021 421.492C37.7808 403.652 29.4157 377.247 24.5793 350.652C22.6864 340.239 22.4965 336.659 22.518 311.828C22.5395 287.563 22.7689 283.181 24.5506 273.005C30.5561 238.695 40.7029 210.915 57.4231 183.005C69.1842 163.375 91.3384 137.614 109.377 122.595C137.692 99.0204 165.338 84.0946 205.832 70.5214C214.157 67.7314 214.465 67.5355 213.692 65.5317C213.18 64.2047 213.249 62.5644 213.881 61.0202C214.876 58.5929 215.479 49.2726 214.635 49.3979C214.388 49.4341 210.962 50.1585 207.02 51.0064ZM179.807 121.473C177.636 125.663 173.771 129.505 171.047 130.178C168.079 130.912 168.442 131.968 172.069 133.148C174.954 134.085 175.938 135.005 180.52 141.054L182.162 143.22L184.063 139.548C185.32 137.121 187.373 135.064 190.113 133.481C194.594 130.895 194.589 130.876 188.886 127.77C187.394 126.958 185.461 124.616 184.335 122.255C183.257 119.999 182.185 118.152 181.951 118.152C181.717 118.152 180.753 119.646 179.807 121.473ZM360.274 125.637C359.212 127.58 357.151 129.398 354.668 130.582L350.741 132.454L354.751 134.959C356.956 136.337 359.398 138.678 360.177 140.161C361.785 143.225 363.849 143.679 364.664 141.148C365.212 139.45 369.565 135.37 372.825 133.501C374.371 132.614 374.189 132.357 370.814 130.661C368.773 129.634 366.222 127.393 365.147 125.68C364.072 123.966 362.914 122.564 362.574 122.564C362.233 122.564 361.199 123.947 360.274 125.637ZM119.858 152.741C119.267 153.323 118.783 154.633 118.783 155.652C118.783 156.671 119.267 157.982 119.858 158.564C120.449 159.146 121.78 159.623 122.814 159.623C123.849 159.623 125.179 159.146 125.771 158.564C126.362 157.982 126.846 156.671 126.846 155.652C126.846 154.633 126.362 153.323 125.771 152.741C125.179 152.158 123.849 151.682 122.814 151.682C121.78 151.682 120.449 152.158 119.858 152.741ZM191.457 178.278L188.728 181.933L191.532 185.778C193.073 187.893 194.42 189.623 194.523 189.623C194.627 189.623 196.207 187.825 198.035 185.628L201.36 181.631L198.367 178.202C196.721 176.315 195.107 174.738 194.781 174.698C194.454 174.656 192.958 176.268 191.457 178.278ZM435.555 187.94C433.401 196.179 428.847 201.094 421.428 203.191C418.642 203.979 415.922 204.623 415.381 204.623C414.841 204.623 414.4 204.955 414.4 205.36C414.4 205.766 416.92 206.787 419.998 207.63C427.046 209.558 433.081 215.242 435.408 222.143C436.247 224.627 437.248 226.854 437.635 227.089C438.021 227.324 439.443 224.956 440.794 221.826C444.344 213.599 448.996 209.938 460.011 206.702C461.938 206.137 460.212 205.022 454.711 203.278C446.022 200.523 442.636 196.122 438.947 182.785C438.255 180.28 437.099 182.037 435.555 187.94ZM317.652 188.725C317.652 190.157 311.639 195.799 310.112 195.799C309.333 195.799 308.694 196.196 308.694 196.682C308.694 197.167 309.123 197.564 309.648 197.564C310.173 197.564 312.591 199.576 315.022 202.034C319.415 206.477 319.449 206.491 320.271 204.36C320.726 203.18 322.572 201.019 324.373 199.557L327.646 196.9L324.914 194.984C323.412 193.93 321.479 191.896 320.62 190.463C319.073 187.884 317.652 187.052 317.652 188.725ZM95.6643 195.655C93.2277 203.105 89.1285 207.47 82.6115 209.551C80.088 210.357 77.6684 211.338 77.233 211.731C76.7977 212.125 78.7577 213.109 81.5875 213.92C88.7316 215.965 93.2554 220.166 95.2674 226.623C96.1301 229.391 97.1979 231.827 97.6404 232.037C98.0821 232.246 99.1149 230.391 99.9346 227.915C102.451 220.31 106.426 216.486 114.609 213.795C119.478 212.193 119.315 211.766 112.961 209.479C106.631 207.201 102.356 202.706 100.367 196.237C99.4732 193.327 98.4932 190.647 98.1895 190.283C97.8859 189.918 96.75 192.335 95.6643 195.655ZM157.482 195.976C154.569 198.845 156.203 200.725 191.12 234.648C210.212 253.198 226.738 268.785 227.844 269.286C229.428 270.003 230.238 269.857 231.651 268.597C232.639 267.716 233.447 266.527 233.447 265.954C233.447 264.237 161.942 194.917 160.171 194.917C159.284 194.917 158.073 195.393 157.482 195.976ZM338.897 230.458C319.294 249.491 303.284 265.461 303.317 265.946C303.438 267.731 305.809 269.917 307.625 269.917C308.783 269.917 312.488 266.951 317.38 262.11C321.718 257.815 337.865 242.278 353.261 227.581C368.658 212.884 381.255 200.198 381.255 199.388C381.255 197.253 379.44 195.796 376.821 195.826C375.032 195.847 366.796 203.368 338.897 230.458ZM222.388 204.472C220.292 206.754 220.546 208.762 223.145 210.439C225.219 211.778 225.549 211.778 227.624 210.439C230.396 208.65 230.501 206.045 227.872 204.232C225.293 202.452 224.199 202.5 222.388 204.472ZM385.412 241.721C384.496 246.235 381.335 249.684 375.963 252.033L370.953 254.225L375.432 255.962C380.847 258.064 382.704 259.624 384.952 263.961C385.894 265.781 386.96 267.256 387.319 267.238C387.679 267.22 388.78 265.532 389.765 263.488C391.173 260.566 392.659 259.202 396.705 257.123C399.536 255.667 401.855 254.258 401.856 253.991C401.857 253.725 400.428 252.997 398.679 252.374C394.549 250.903 389.882 246.262 388.801 242.55C387.673 238.675 386.108 238.292 385.412 241.721ZM59.6967 249.535C58.4488 252.503 55.843 255.027 52.0707 256.921L49.4093 258.259L52.5186 259.562C56.0553 261.045 59.1673 264.131 60.0649 267.049C60.9365 269.878 61.9541 269.522 64.1874 265.609C65.2632 263.723 67.7106 261.316 69.6321 260.251C72.8131 258.49 73.5638 256.681 71.1129 256.681C69.2353 256.681 64.3943 252.361 63.2656 249.676C61.8493 246.309 61.0664 246.278 59.6967 249.535ZM468.626 256.304C467.88 258.063 466.876 259.203 466.353 258.886C465.838 258.571 465.527 258.818 465.662 259.432C465.797 260.046 464.398 261.366 462.552 262.365C460.706 263.364 459.194 264.399 459.193 264.666C459.191 264.932 460.637 265.666 462.405 266.296C464.436 267.019 466.644 268.872 468.4 271.326C469.929 273.463 471.431 275.211 471.738 275.211C472.045 275.211 472.961 273.836 473.775 272.156C474.693 270.259 476.6 268.425 478.806 267.316C483.192 265.111 483.939 264.035 481.593 263.302C478.72 262.403 474.75 258.718 473.53 255.817C472.04 252.274 470.261 252.451 468.626 256.304ZM148.851 265.441C145.572 269.01 150.111 273.939 154.228 271.283C156.889 269.566 157.133 265.95 154.675 264.654C152.142 263.319 150.61 263.526 148.851 265.441ZM273.232 283.032C275.093 286.543 281.072 293.095 284.803 295.712C286.259 296.733 289.65 298.449 292.338 299.526L297.225 301.482L292.788 302.933C282.815 306.196 274.762 313.782 271.136 323.33C270.115 326.018 269.279 328.6 269.279 329.068C269.279 329.535 268.876 329.917 268.383 329.917C267.89 329.917 267.487 329.08 267.487 328.057C267.487 324.176 262.198 315.265 256.997 310.385C252.377 306.05 248.934 304.178 241.524 301.974C240.781 301.753 242.406 300.694 245.203 299.573C256.016 295.245 263.157 287.534 266.539 276.534C267.135 274.593 267.83 272.409 268.083 271.681C268.344 270.932 269.219 272.464 270.101 275.211C270.958 277.88 272.368 281.4 273.232 283.032ZM86.7241 308.189C83.9632 325.679 75.7926 334.742 59.8839 337.961C56.805 338.584 54.2851 339.32 54.2851 339.598C54.2851 339.876 57.0066 340.602 60.3318 341.213C76.2064 344.129 83.4096 351.768 86.6578 369.131C87.2526 372.313 88.0033 374.916 88.3258 374.916C88.6483 374.916 89.3811 372.408 89.9553 369.341C91.4817 361.177 94.0088 354.224 96.7222 350.721C99.7106 346.861 108.938 342.411 116.657 341.11C119.797 340.58 122.366 339.884 122.366 339.563C122.366 339.242 120.609 338.743 118.461 338.452C113.033 337.72 105.295 334.739 101.16 331.789C99.0925 330.314 96.5493 327.192 94.8921 324.097C92.1849 319.037 89.2216 308.502 89.2216 303.934C89.2216 299.332 87.7176 301.895 86.7241 308.189ZM414.452 329.602C412.102 334.983 408.828 338.288 404.332 339.822C402.519 340.44 401.068 341.343 401.108 341.828C401.147 342.314 403.171 343.442 405.605 344.337C409.933 345.927 415.295 351.419 415.295 354.261C415.295 357.011 417.084 356.069 418.906 352.361C420.953 348.196 425.401 344.618 429.86 343.549C433.784 342.608 433.565 341.624 428.989 339.629C423.312 337.156 420.828 334.77 418.426 329.484L416.426 325.081L414.452 329.602ZM198.197 364.108C163.249 398.154 156.407 405.16 156.407 406.892C156.407 408.762 158.66 410.401 160.761 410.058C161.731 409.899 178.281 394.528 197.538 375.899C226.844 347.55 232.551 341.633 232.551 339.597C232.551 337.211 231.205 336.093 228.334 336.093C227.574 336.093 214.012 348.7 198.197 364.108ZM304.778 337.441C304.468 338.235 304.215 339.396 304.215 340.019C304.215 341.927 373.924 409.739 376.186 410.031C377.353 410.183 378.909 409.537 379.852 408.51C381.346 406.884 381.37 406.544 380.122 404.668C379.368 403.535 363.365 387.741 344.558 369.571C318.175 344.079 309.792 336.473 307.852 336.266C306.173 336.087 305.153 336.476 304.778 337.441ZM460.964 338.774C459.678 341.139 460.659 343.97 463.076 344.87C467.176 346.395 470.542 341.833 467.642 338.677C465.593 336.448 462.201 336.496 460.964 338.774ZM163.964 339.181C162.581 342.76 159.748 345.884 156.332 347.602C154.402 348.571 152.838 349.654 152.856 350.008C152.874 350.362 154.587 351.446 156.662 352.416C158.738 353.387 161.367 355.571 162.507 357.269C163.645 358.968 164.856 360.456 165.195 360.576C165.535 360.696 166.619 359.312 167.605 357.501C168.69 355.507 170.931 353.377 173.287 352.099L177.177 349.988L173.761 348.101C170.71 346.415 169.246 344.779 165.678 339.067C164.68 337.469 164.625 337.473 163.964 339.181ZM353.1 342.773C351.186 344.66 351.332 346.969 353.488 348.891C354.979 350.219 355.667 350.318 357.545 349.476C360.569 348.119 361.155 346.245 359.385 343.586C357.717 341.077 355.159 340.747 353.1 342.773ZM392.409 371.769C389.91 375.526 394.059 379.785 398.129 377.64C400.446 376.418 401.044 373.658 399.469 371.444C397.694 368.948 394.179 369.11 392.409 371.769ZM122.425 395.799C118.926 398.213 120.667 402.269 125.202 402.269C128.228 402.269 130.047 399.571 128.697 397.085C127.473 394.833 124.661 394.257 122.425 395.799ZM313.262 401.036C312.462 403.216 310.868 404.946 308.184 406.55C306.032 407.835 304.262 409.085 304.25 409.328C304.239 409.571 305.856 410.684 307.843 411.802C309.94 412.982 312.075 415.112 312.929 416.876C314.454 420.027 315.861 420.868 315.861 418.63C315.861 417.216 321.556 411.208 324.324 409.703C325.923 408.832 325.755 408.581 322.301 406.669C319.853 405.313 317.988 403.415 316.973 401.243C316.115 399.406 315.192 397.893 314.921 397.88C314.651 397.868 313.904 399.288 313.262 401.036ZM497.244 403.725C492.932 415.008 481.743 437.507 478.992 440.424C478.652 440.784 471.942 442.644 464.079 444.557C426.152 453.784 391.735 467.127 354.903 486.882C346.666 491.301 339.533 494.916 339.054 494.916C338.26 494.916 318.449 487.104 317.839 486.55C317.695 486.419 321.524 483.547 326.349 480.167C377.058 444.641 425.772 419.051 469.044 405.207C475.402 403.172 495.983 398.06 498.373 397.922C499.137 397.878 498.782 399.7 497.244 403.725ZM205.625 407.428C204.091 408.65 203.753 409.574 204.2 411.327C205.228 415.361 210.575 415.477 211.592 411.487C212.611 407.484 208.803 404.893 205.625 407.428ZM95.5371 448.203C102.164 448.716 116.514 450.493 127.426 452.151C157.433 456.709 174.304 460.512 204.781 469.582C222.016 474.712 222.924 475.087 219.562 475.683C217.591 476.032 210.939 477.142 204.781 478.149C174.485 483.101 149.045 490.688 123.833 502.293L115.437 506.157L104.793 496.727C90.0646 483.678 75.1037 466.937 64.1283 451.225L61.3656 447.269H72.427C78.5114 447.269 88.9108 447.689 95.5371 448.203ZM456.376 472.196C446.576 484.592 419.22 508.688 401.858 520.215L397.827 522.892L381.472 514.752C369.264 508.677 365.406 506.377 366.255 505.683C370.432 502.268 402.671 487.366 421.118 480.322C429.028 477.302 454.684 469.304 459.041 468.501C459.206 468.47 458.007 470.134 456.376 472.196ZM263.429 497.234C267.504 498.775 211.78 530.079 186.761 540.305L180.834 542.727L167.839 536.587C160.693 533.209 150.92 528.171 146.123 525.39L137.401 520.334L146.232 516.59C169.178 506.865 190.055 501.686 224.041 497.292C228.63 496.699 261.884 496.65 263.429 497.234ZM315.861 509.485C334.308 516.637 347.71 522.494 363.725 530.401L374.459 535.701L366.883 538.712C339.306 549.672 309.47 556.62 282.424 558.379C261.727 559.725 233.695 557.469 216.21 553.052L212.859 552.205L222.481 547.266C243.653 536.398 257.365 528.138 281.82 511.52C291.79 504.745 296.21 502.223 297.497 502.572C298.482 502.84 306.746 505.952 315.861 509.485Z" fill="black"/>
</svg>
